<?xml version="1.0" encoding="UTF-8" standalone="no"?>
<!-- Created with Inkscape (http://www.inkscape.org/) -->

<svg
   xmlns:dc="http://purl.org/dc/elements/1.1/"
   xmlns:cc="http://creativecommons.org/ns#"
   xmlns:rdf="http://www.w3.org/1999/02/22-rdf-syntax-ns#"
   xmlns:svg="http://www.w3.org/2000/svg"
   xmlns="http://www.w3.org/2000/svg"
   xmlns:sodipodi="http://sodipodi.sourceforge.net/DTD/sodipodi-0.dtd"
   xmlns:inkscape="http://www.inkscape.org/namespaces/inkscape"
   width="210mm"
   height="297mm"
   viewBox="0 0 210 297"
   version="1.1"
   id="svg8"
   inkscape:version="0.92.3 (d244b95, 2018-08-02)"
   sodipodi:docname="interceptor_logo.svg"
   inkscape:export-filename="/home/andre/interceptor_logo_with_title.png"
   inkscape:export-xdpi="121.02303"
   inkscape:export-ydpi="121.02303">
  <defs
     id="defs2" />
  <sodipodi:namedview
     id="base"
     pagecolor="#ffffff"
     bordercolor="#666666"
     borderopacity="1.0"
     inkscape:pageopacity="0.0"
     inkscape:pageshadow="2"
     inkscape:zoom="1.4"
     inkscape:cx="319.32363"
     inkscape:cy="950.89097"
     inkscape:document-units="mm"
     inkscape:current-layer="layer2"
     showgrid="false"
     inkscape:measure-start="537.906,990.96"
     inkscape:measure-end="0,0"
     inkscape:window-width="1916"
     inkscape:window-height="1041"
     inkscape:window-x="0"
     inkscape:window-y="18"
     inkscape:window-maximized="0" />
  <metadata
     id="metadata5">
    <rdf:RDF>
      <cc:Work
         rdf:about="">
        <dc:format>image/svg+xml</dc:format>
        <dc:type
           rdf:resource="http://purl.org/dc/dcmitype/StillImage" />
        <dc:title></dc:title>
      </cc:Work>
    </rdf:RDF>
  </metadata>
  <g
     inkscape:groupmode="layer"
     id="layer2"
     inkscape:label="Layer 2"
     style="display:inline">
    <path
       style="fill:#7a3bba;fill-opacity:1;stroke:#57007f;stroke-width:0.26499999;stroke-linecap:square;stroke-linejoin:miter;stroke-miterlimit:4;stroke-dasharray:none;stroke-opacity:1;paint-order:stroke fill markers"
       id="path4639"
       d="m 11.662132,78.776132 c 0.184632,-0.237482 0.343625,-0.497332 0.553892,-0.712441 1.686537,-1.725369 4.054301,-2.980113 6.170518,-4.050421 3.774826,-1.909173 4.419052,-2.055554 8.509306,-3.691509 1.847618,-0.632974 3.669676,-1.346142 5.542849,-1.898915 9.523203,-2.810293 19.468906,-3.967083 29.382082,-3.917283 2.658155,0.01336 5.31298,0.189994 7.969465,0.284993 3.362519,0.403498 5.995964,0.506021 9.155996,1.543582 0.666007,0.218673 1.252654,0.629576 1.878981,0.944364 0.138987,0.07166 -0.874437,2.037318 -1.013434,1.965658 v 0 c -3.718829,-0.193982 -7.441798,-0.2917 -11.166277,-0.277251 -1.852431,0.008 -3.705189,-0.01138 -5.55731,0.02405 -2.464695,0.04714 -4.9301,0.09827 -7.392058,0.22361 -7.170698,0.365078 -14.364729,1.088742 -21.385909,2.641955 -1.881389,0.416197 -3.724966,0.98792 -5.587447,1.481881 -4.482698,1.47193 -4.481105,1.426144 -8.711033,2.978589 -2.422475,0.889085 -4.895707,1.767091 -7.077136,3.175944 -0.05069,0.08998 -1.323171,-0.626835 -1.272485,-0.716811 z"
       inkscape:connector-curvature="0" />
    <path
       style="display:inline;fill:#7a3bba;fill-opacity:1;fill-rule:nonzero;stroke:#7a3bba;stroke-width:1.20000005;stroke-linecap:square;stroke-miterlimit:4;stroke-dasharray:none;stroke-opacity:1;paint-order:stroke fill markers"
       id="path4701"
       d="m 71.241105,56.869277 c 0.645167,-0.0055 1.081234,-0.03098 1.743811,0.07233 1.448931,0.22591 2.865342,0.727906 4.157006,1.416196 0.493337,0.262885 0.956004,0.579654 1.434001,0.869482 1.635061,1.089226 3.070002,2.441924 4.193706,4.055514 0.359057,0.515578 0.614747,0.985954 0.922824,1.524384 0.546317,1.104215 0.0113,0.03099 0.442837,0.878324 0.0978,0.191953 0.18592,0.368236 0.36148,0.502055 0.178197,0.113495 0.301197,0.2906 0.451887,0.434255 0.0451,0.04303 0.0996,0.07554 0.1444,0.118965 0.181037,0.175598 0.197137,0.222758 0.345607,0.437245 0.348517,0.62181 0.26605,1.18487 0.0886,1.83325 -0.0944,0.267822 -0.0676,0.569246 -0.20004,0.826087 -0.0889,0.172424 -0.209327,0.326682 -0.313997,0.490025 -1.421231,1.379984 -3.118382,2.436151 -4.807233,3.452381 -0.440127,0.238429 -0.875364,0.486127 -1.320394,0.715288 -0.702704,0.361846 -1.763298,0.851971 -2.489925,1.183285 -0.661097,0.301432 -1.407911,0.641017 -2.089948,0.903809 -0.258177,0.09948 -0.522407,0.182478 -0.783614,0.273717 -0.18427,0.05811 -0.36853,0.116218 -0.552797,0.174326 -0.13721,0.09787 -1.521274,-1.842646 -1.384064,-1.940515 v 0 c 0.16035,-0.103442 0.32069,-0.206881 0.481027,-0.310322 2.044208,-1.191109 4.198576,-2.182463 6.278124,-3.309157 1.149414,-0.589005 2.279088,-1.215549 3.433512,-1.794468 0.16743,-0.08396 1.064984,-0.521499 1.336841,-0.631378 0.0744,-0.03008 0.15429,-0.04445 0.23144,-0.06668 -0.0259,0.678944 0.0563,-0.345803 0.11047,-0.443386 0.0244,-0.08745 0.06,-0.455557 0.159717,-0.240687 -0.265597,-0.25805 -0.507367,-0.53848 -0.779764,-0.789529 -0.454777,-0.489276 -0.940794,-0.948579 -1.336504,-1.491105 -0.553344,-0.676015 -1.117651,-1.345226 -1.745868,-1.954371 -0.969654,-0.940215 -2.039338,-1.77065 -3.155372,-2.528999 -0.40633,-0.246898 -0.803177,-0.510132 -1.219004,-0.740693 -0.775697,-0.430098 -1.570141,-0.788178 -2.399485,-1.099894 -0.805197,-0.302643 -1.026097,-0.331462 -1.809771,-0.556609 -0.15859,-0.04556 -0.315687,-0.09617 -0.473537,-0.144259 -0.14982,-0.03847 0.394207,-2.157328 0.544027,-2.11886 z"
       inkscape:connector-curvature="0" />
    <path
       style="fill:none;stroke:#0094ff;stroke-width:5;stroke-linecap:butt;stroke-linejoin:miter;stroke-miterlimit:4;stroke-dasharray:none;stroke-opacity:1"
       d="M 26.736924,85.442644 C 19.691037,59.811816 19.691037,59.811816 19.691037,59.811816"
       id="path4718"
       inkscape:connector-curvature="0" />
    <path
       style="display:inline;fill:none;stroke:#8fe81e;stroke-width:5;stroke-linecap:butt;stroke-linejoin:miter;stroke-miterlimit:4;stroke-dasharray:none;stroke-opacity:1"
       d="M 37.991873,82.79128 C 34.428054,56.449619 34.428054,56.449619 34.428054,56.449619"
       id="path4718-3"
       inkscape:connector-curvature="0" />
    <path
       style="display:inline;fill:none;stroke:#ff7f7f;stroke-width:5;stroke-linecap:butt;stroke-linejoin:miter;stroke-miterlimit:4;stroke-dasharray:none;stroke-opacity:1"
       d="M 49.751185,81.36909 C 48.994701,54.798209 48.994701,54.798209 48.994701,54.798209"
       id="path4718-3-6"
       inkscape:connector-curvature="0" />
    <path
       style="display:inline;fill:none;stroke:#7fc9ff;stroke-width:5;stroke-linecap:butt;stroke-linejoin:miter;stroke-miterlimit:4;stroke-dasharray:none;stroke-opacity:1"
       d="M 61.756889,81.300207 C 62.646733,54.733458 62.646733,54.733458 62.646733,54.733458"
       id="path4718-3-6-7"
       inkscape:connector-curvature="0" />
    <text
       xml:space="preserve"
       style="font-style:normal;font-variant:normal;font-weight:normal;font-stretch:normal;font-size:21.88842773px;line-height:1.25;font-family:Ubuntu;-inkscape-font-specification:Ubuntu;letter-spacing:0px;word-spacing:0px;fill:#000000;fill-opacity:1;stroke:none;stroke-width:0.41040799"
       x="99.111427"
       y="67.306915"
       id="text4786"
       transform="scale(0.89264849,1.1202618)"><tspan
         sodipodi:role="line"
         id="tspan4784"
         x="99.111427"
         y="67.306915"
         style="font-style:normal;font-variant:normal;font-weight:normal;font-stretch:normal;font-size:21.88842773px;font-family:Ubuntu;-inkscape-font-specification:Ubuntu;stroke-width:0.41040799">Interceptor</tspan></text>
  </g>
</svg>
